<svg width="44" height="41" viewBox="0 0 44 41" fill="none" xmlns="http://www.w3.org/2000/svg">
<path d="M5.05098 40.1259C4.33734 39.7087 3.71343 39.1553 3.21507 38.4973C2.71671 37.8393 2.3537 37.0898 2.14687 36.2917C1.94004 35.4937 1.89348 34.6628 2.00983 33.8467C2.12618 33.0307 2.40316 32.2456 2.82488 31.5364L17.134 7.36929C17.5531 6.65872 18.1089 6.03757 18.7696 5.54148C19.4303 5.0454 20.1828 4.68414 20.9839 4.47843C21.7851 4.27272 22.6192 4.22661 23.4383 4.34275C24.2574 4.45888 25.0454 4.73498 25.7571 5.1552C26.4709 5.57185 27.095 6.12476 27.5937 6.78223C28.0925 7.43969 28.456 8.18876 28.6634 8.98648C28.8708 9.7842 28.9181 10.6149 28.8025 11.4308C28.6869 12.2468 28.4107 13.032 27.9898 13.7414L13.6807 37.9085C13.2619 38.6194 12.7063 39.2408 12.0457 39.7373C11.3852 40.2337 10.6327 40.5953 9.83152 40.8013C9.03033 41.0073 8.19618 41.0537 7.37694 40.9378C6.5577 40.8219 5.7695 40.546 5.05758 40.1259H5.05098Z" fill="#2A2A4E"/>
<path d="M38.5182 3.81755C34.5788 -1.08508 26.1177 -1.16415 17.7724 2.99715C24.3514 0.193298 30.7154 0.483237 33.7684 4.27882C37.9427 9.47797 34.3241 19.2634 25.6744 26.1825C17.0248 33.1015 6.63868 34.4458 2.46437 29.2466C0.542603 26.8546 0.274673 23.484 1.38275 19.8763C-0.601866 24.8184 -0.525791 29.586 2.10383 32.8577C7.06537 39.042 19.2509 37.5593 29.303 29.5431C39.3551 21.527 43.4864 10.0018 38.5182 3.81755Z" fill="#003791"/>
<path d="M38.1146 24.377C36.0926 27.112 33.717 29.5691 31.0494 31.6848C30.3107 32.2712 29.562 32.8258 28.8035 33.3486L31.5058 37.9086C31.9259 38.618 32.4821 39.238 33.1427 39.7332C33.8033 40.2285 34.5553 40.5893 35.3559 40.795C36.1565 41.0008 36.9899 41.0475 37.8086 40.9324C38.6273 40.8173 39.4152 40.5427 40.1273 40.1243C40.8395 39.7059 41.462 39.1519 41.9592 38.4939C42.4564 37.8359 42.8186 37.0868 43.0251 36.2893C43.2317 35.4918 43.2785 34.6617 43.163 33.8462C43.0475 33.0307 42.7718 32.2459 42.3518 31.5365L38.1146 24.377Z" fill="#003791"/>
<path d="M27.9898 7.40235L27.9667 7.36611C27.4121 6.42513 26.6202 5.64488 25.6695 5.10274C24.7189 4.5606 23.6424 4.27539 22.547 4.27539C21.4516 4.27539 20.3752 4.5606 19.4245 5.10274C18.4738 5.64488 17.6819 6.42513 17.1273 7.36611L16.9554 7.65605L12.3246 15.4877C12.8604 14.7134 15.4801 11.3462 17.9477 15.0265L22.5784 22.8482L23.4781 24.3638L23.9412 24.008C27.7219 20.9933 30.5004 17.2339 31.8334 13.7942L27.9898 7.40235Z" fill="#003791"/>
</svg>
